<svg id="Layer_1" data-name="Layer 1" xmlns="http://www.w3.org/2000/svg" viewBox="0 0 577.7 159.1"><defs><style>.cls-1{fill:#fff;}.cls-2{fill:#d4d4d4;}</style></defs><title>social-links-gray-test2</title><g id="Page-1"><g id="social-links-gray-test"><path id="Shape" class="cls-1" d="M39.7,0A39.7,39.7,0,1,0,79.4,39.7,39.73,39.73,0,0,0,39.7,0Zm10,41.3h-7V66.7H32.2V41.3H27V32.5h5.2v-2c.1-2.1,0-4.2.2-6.3.6-4.9,3.7-7.8,8.6-8.2a19.42,19.42,0,0,1,2.4-.2h7.2v8.7H46c-2.5,0-3.3.8-3.3,3.2v4.7h7.9Z" transform="translate(0 0)"/><path id="Shape-2" data-name="Shape" class="cls-1" d="M451.8,49.3v8.4a1.55,1.55,0,0,1-.5,1.4,1.65,1.65,0,0,1-1.5.5c-.6-.2-.5-.8-.5-1.3V48.2h-2.5c0,.1-.1.2-.1.3V59.9a1.7,1.7,0,0,0,.1.7,1.59,1.59,0,0,0,1.8,1.4,3.73,3.73,0,0,0,2.3-1l.7-.5.2,1.2h2.5V48.1h-2.6A4.87,4.87,0,0,1,451.8,49.3Z" transform="translate(0 0)"/><path id="Shape-3" data-name="Shape" class="cls-1" d="M464.1,49.8a2.48,2.48,0,0,0-2.9-1.9,3.55,3.55,0,0,0-.9.4c-.3.2-.6.4-1.1.8V43.2h-2.5V61.7h2.4l.3-.8c.3.2.5.4.7.5a2.77,2.77,0,0,0,2.9.2,2.43,2.43,0,0,0,1.3-2.4V51.1A5.85,5.85,0,0,0,464.1,49.8Zm-2.5,8.9a1,1,0,0,1-.9,1.2h-.2a1.24,1.24,0,0,1-1.3-1.2h0V51.2a.94.94,0,0,1,.8-1.1h.2a1.07,1.07,0,0,1,1.3.8v.2a2.77,2.77,0,0,1,.1.9v6.7Z" transform="translate(0 0)"/><path id="Shape-4" data-name="Shape" class="cls-1" d="M436.2,43.3v2.5h3.1v12a25.41,25.41,0,0,0,.1,3.9h2.9V45.8h3.1V43.3A70.61,70.61,0,0,0,436.2,43.3Z" transform="translate(0 0)"/><path id="Shape-5" data-name="Shape" class="cls-1" d="M455,0a39.7,39.7,0,1,0,39.7,39.7A39.73,39.73,0,0,0,455,0Zm6,16a15,15,0,0,1,3,0V27.2a1.49,1.49,0,0,0,.4,1.4,1.76,1.76,0,0,0,2.1-1.5V16h3.1V31.2h-3l-.1-1.4c-.2.2-.5.3-.6.5a5.45,5.45,0,0,1-2.4,1.2,2,2,0,0,1-2.5-1.4c0-.1,0-.2-.1-.2a2.77,2.77,0,0,1-.1-.9V16.6A.73.73,0,0,0,461,16Zm-8.2-.3a7,7,0,0,1,2.9.1,3.57,3.57,0,0,1,2.8,3.7v7.8c0,2.9-1.8,4.5-4.7,4.4a4.06,4.06,0,0,1-4.3-3.9v-8A3.79,3.79,0,0,1,452.8,15.7Zm-11.5-5.2,2.2,8c1-2.6,1.5-5.4,2.4-8h3.5a3.58,3.58,0,0,1-.4,1.1c-1.1,3.2-2.1,6.4-3.2,9.7a8.42,8.42,0,0,0-.4,2.7v7.2h-3.5c0-.4-.1-.8-.1-1.1V24.2a6.2,6.2,0,0,0-.4-2.3c-1.1-3.4-2.2-6.8-3.3-10.1-.1-.4-.2-.7-.3-1.2ZM478,61.7a6.81,6.81,0,0,1-6.1,5.9,270.66,270.66,0,0,1-33.7,0,6.71,6.71,0,0,1-6.1-5.9,138.17,138.17,0,0,1,0-18.2,6.81,6.81,0,0,1,6.1-5.9,270.67,270.67,0,0,1,33.7,0,6.71,6.71,0,0,1,6.1,5.9A110.6,110.6,0,0,1,478,61.7Z" transform="translate(0 0)"/><path id="Shape-6" data-name="Shape" class="cls-1" d="M470.6,47.7a4,4,0,0,0-4.5,2.5,4.67,4.67,0,0,0-.3,1.7v5.9a5.9,5.9,0,0,0,.2,1.4,3.53,3.53,0,0,0,3.4,2.9h1.1a3.51,3.51,0,0,0,3.3-3.8,3.55,3.55,0,0,0-.2-1h-2.4a8.75,8.75,0,0,1-.2,1.6,1.11,1.11,0,0,1-1.4.9c-.1,0-.2-.1-.3-.1a1.14,1.14,0,0,1-.6-1.2V55.2h5.1c0-.3.1-.5.1-.7V51.1A3.56,3.56,0,0,0,470.6,47.7Zm-2,5.4v-2a1.17,1.17,0,0,1,1.4-1,1.06,1.06,0,0,1,.9.9,14.77,14.77,0,0,1,.1,2.1Z" transform="translate(0 0)"/><path id="Shape-7" data-name="Shape" class="cls-1" d="M452.9,27.6a1.2,1.2,0,0,0,1,1.3,1.27,1.27,0,0,0,.6-.1,1.13,1.13,0,0,0,.9-1.3V19.6a1.13,1.13,0,0,0-1-1.3H454a1.11,1.11,0,0,0-1.2,1v4.3C452.9,24.9,452.8,26.3,452.9,27.6Z" transform="translate(0 0)"/><path id="Shape-8" data-name="Shape" class="cls-1" d="M122.9,0a39.7,39.7,0,1,0,39.7,39.7A39.73,39.73,0,0,0,122.9,0Zm23.4,27.7c-.9.9-1.8,1.8-2.7,2.8a4.59,4.59,0,0,0-1,2.5c-.7,13.4-9.9,25.6-23.4,27.7a29.41,29.41,0,0,1-19.1-3.2c-.2-.1-.4-.3-.6-.4v-.3c4.9,0,9.6-.8,13.7-3.9-3.8-1.2-7.2-2.8-8.7-7.2H108l.1-.3a11.55,11.55,0,0,1-6.2-5.5c-.5-1.5-1-3-1.4-4.5l3.9,1.1.3-.2c-3.9-3.8-4.7-8.2-2.5-13.2,5.5,6.2,12.1,10,20.5,10.6a22.85,22.85,0,0,1,0-3.7,9.9,9.9,0,0,1,11.1-8.5,10.92,10.92,0,0,1,3.6,1.2c.1.1.3.1.4.2,1.7,1.8,3.5,1.4,5.5.5l2.7-1.2.3.3L143,27.1l.1.2,4-1.1.1.2C146.9,26.8,146.6,27.3,146.3,27.7Z" transform="translate(0 0)"/><path id="Shape-9" data-name="Shape" class="cls-1" d="M205.9.1a39.7,39.7,0,1,0,39.7,39.7h0A39.61,39.61,0,0,0,205.9.1Zm-5.1,40.5a4.48,4.48,0,0,1-.1,1.1l11.4,5.7a10.12,10.12,0,1,1-.5,14.3,10.49,10.49,0,0,1-2.7-6.9,4.48,4.48,0,0,1,.1-1.1L197.5,48a10.12,10.12,0,1,1,0-14.8l11.4-5.7c0-.4-.1-.7-.1-1.1A10.15,10.15,0,1,1,219,36.5a10.55,10.55,0,0,1-7-2.7l-11.4,5.7A5.16,5.16,0,0,1,200.8,40.6Z" transform="translate(0 0)"/><path id="Shape-10" data-name="Shape" class="cls-1" d="M289.3,0A39.7,39.7,0,1,0,329,39.7,39.73,39.73,0,0,0,289.3,0Zm11.2,40.3c0,12.2-8.1,20.4-20.2,20.4a21.21,21.21,0,0,1-21.4-21,21.42,21.42,0,0,1,35.4-15.8L288.9,30a13.44,13.44,0,0,0-8.6-3.2,12.9,12.9,0,0,0,0,25.8h0c6.1,0,10.1-2.9,11.4-8.2H280.4V36.3h20.1Zm16.1.9v6.2h-5V41.2h-6.2v-5h6.2V30h5v6.2h6.2v5Z" transform="translate(0 0)"/><path id="Shape-11" data-name="Shape" class="cls-1" d="M372.5,0a39.7,39.7,0,1,0,39.7,39.7A39.73,39.73,0,0,0,372.5,0ZM361.8,58.5H353V31.6h8.8Zm.5-34a4.76,4.76,0,0,1-4.9,3.4c-3.6,0-5.9-3-4.7-6.3.9-2.4,3.8-3.6,6.5-2.8A4.63,4.63,0,0,1,362.3,24.5Zm31.9,33.3v.6h-8.9v-14a11.23,11.23,0,0,0-.4-3.2,4.51,4.51,0,0,0-5.3-3.2,5.56,5.56,0,0,0-1.7.9,5.12,5.12,0,0,0-2.1,4.2V58.4H367V31.6h8.9v3.5l.3-.3c2.6-3.7,6.3-4.6,10.4-3.7s6.4,3.8,7.2,7.8a18.1,18.1,0,0,1,.4,4Z" transform="translate(0 0)"/><path id="Shape-12" data-name="Shape" class="cls-2" d="M39.7,79.5a39.7,39.7,0,1,0,39.7,39.7A39.67,39.67,0,0,0,39.7,79.5Zm10,41.3h-7v25.4H32.2V120.9H27v-8.8h5.2v-2c.1-2.1,0-4.2.2-6.3.6-4.9,3.7-7.8,8.6-8.3a19.42,19.42,0,0,1,2.4-.2h7.2V104H46c-2.5,0-3.3.8-3.3,3.2v4.7h7.9Z" transform="translate(0 0)"/><path id="Shape-13" data-name="Shape" class="cls-2" d="M451.8,128.8v8.4a1.55,1.55,0,0,1-.5,1.4,1.65,1.65,0,0,1-1.5.5c-.6-.2-.5-.8-.5-1.3V127.7h-2.5c0,.1-.1.2-.1.3v11.4a1.7,1.7,0,0,0,.1.7,1.59,1.59,0,0,0,1.8,1.4,3.73,3.73,0,0,0,2.3-1l.7-.6.2,1.2h2.5V127.6h-2.6A5.74,5.74,0,0,1,451.8,128.8Z" transform="translate(0 0)"/><path id="Shape-14" data-name="Shape" class="cls-2" d="M464.1,129.3a2.48,2.48,0,0,0-2.9-1.9,3.55,3.55,0,0,0-.9.4c-.3.2-.6.4-1.1.8v-5.9h-2.5v18.5h2.4l.3-.8c.3.2.5.4.7.5a2.77,2.77,0,0,0,2.9.2,2.43,2.43,0,0,0,1.3-2.4v-8.1A6.88,6.88,0,0,0,464.1,129.3Zm-2.5,9a1,1,0,0,1-.9,1.2h-.2a1.24,1.24,0,0,1-1.3-1.2h0v-7.5a.94.94,0,0,1,.8-1.1h.2a1.07,1.07,0,0,1,1.3.8v.2a2.77,2.77,0,0,1,.1.9v6.7Z" transform="translate(0 0)"/><path id="Shape-15" data-name="Shape" class="cls-2" d="M436.2,122.9v2.5h3.1v12a25.09,25.09,0,0,0,.1,3.9h2.9V125.4h3.1V123A40.44,40.44,0,0,0,436.2,122.9Z" transform="translate(0 0)"/><path id="Shape-16" data-name="Shape" class="cls-2" d="M452.9,107.2a1.2,1.2,0,0,0,1,1.3,1.27,1.27,0,0,0,.6-.1,1.13,1.13,0,0,0,.9-1.3V99.2a1.13,1.13,0,0,0-1-1.3H454a1.11,1.11,0,0,0-1.2,1v4.3C452.9,104.5,452.8,105.8,452.9,107.2Z" transform="translate(0 0)"/><path id="Shape-17" data-name="Shape" class="cls-2" d="M470.6,127.3a4,4,0,0,0-4.5,2.5,4.67,4.67,0,0,0-.3,1.7v5.9a5.9,5.9,0,0,0,.2,1.4,3.53,3.53,0,0,0,3.4,2.9h1.1a3.51,3.51,0,0,0,3.3-3.8,3.55,3.55,0,0,0-.2-1h-2.4a8.75,8.75,0,0,1-.2,1.6,1.11,1.11,0,0,1-1.4.9c-.1,0-.2-.1-.3-.1a1.14,1.14,0,0,1-.6-1.2v-3.4h5.1c0-.3.1-.5.1-.7v-3.4A3.47,3.47,0,0,0,470.6,127.3Zm-2,5.3v-2a1.17,1.17,0,0,1,1.4-1,1.06,1.06,0,0,1,.9.9,14.77,14.77,0,0,1,.1,2.1Z" transform="translate(0 0)"/><path id="Shape-18" data-name="Shape" class="cls-2" d="M455,79.6a39.7,39.7,0,1,0,39.7,39.7A39.73,39.73,0,0,0,455,79.6Zm6,16a15,15,0,0,1,3,0v11.2a1.49,1.49,0,0,0,.4,1.4,1.76,1.76,0,0,0,2.1-1.5v-11h3.1v15.2h-3l-.1-1.4c-.2.2-.5.3-.6.5a5.45,5.45,0,0,1-2.4,1.2,2,2,0,0,1-2.5-1.4c0-.1,0-.2-.1-.2a2.77,2.77,0,0,1-.1-.9V96.3A1.23,1.23,0,0,0,461,95.6Zm-8.2-.3a7,7,0,0,1,2.9.1,3.73,3.73,0,0,1,2.9,3.6v7.8c0,2.9-1.8,4.5-4.7,4.4a4.06,4.06,0,0,1-4.3-3.9v-8A3.62,3.62,0,0,1,452.8,95.3Zm-11.5-5.2,2.2,8c1-2.6,1.5-5.4,2.4-8h3.5a3.58,3.58,0,0,1-.4,1.1c-1.1,3.2-2.1,6.4-3.2,9.7a8.42,8.42,0,0,0-.4,2.7v7.2h-3.5c0-.4-.1-.8-.1-1.1v-5.9a6.2,6.2,0,0,0-.4-2.3l-3.3-10.2a10.38,10.38,0,0,1-.3-1.2ZM478,141.3a6.81,6.81,0,0,1-6.1,5.9,270.67,270.67,0,0,1-33.7,0,6.71,6.71,0,0,1-6.1-5.9,138.17,138.17,0,0,1,0-18.2,6.81,6.81,0,0,1,6.1-5.9,270.67,270.67,0,0,1,33.7,0A6.71,6.71,0,0,1,478,123,111.82,111.82,0,0,1,478,141.3Z" transform="translate(0 0)"/><path id="Shape-19" data-name="Shape" class="cls-2" d="M122.9,79.6a39.7,39.7,0,1,0,39.7,39.7h0A39.54,39.54,0,0,0,122.9,79.6Zm23.4,27.6c-.9.9-1.8,1.8-2.7,2.8a4.59,4.59,0,0,0-1,2.5c-.7,13.4-9.9,25.6-23.4,27.7a29.41,29.41,0,0,1-19.1-3.2c-.2-.1-.4-.3-.7-.5v-.3c4.9,0,9.6-.8,13.7-3.9-3.8-1.2-7.2-2.8-8.7-7.2h3.5l.1-.3a11.55,11.55,0,0,1-6.2-5.5c-.5-1.5-1-3-1.4-4.5l3.9,1.1.3-.2c-3.9-3.8-4.7-8.2-2.5-13.2,5.5,6.2,12.1,10,20.5,10.6a22.85,22.85,0,0,1,0-3.7,9.9,9.9,0,0,1,11.1-8.5,10.92,10.92,0,0,1,3.6,1.2c.1.1.3.1.4.2,1.7,1.8,3.5,1.4,5.5.5l2.7-1.2.3.3-3.3,4.6.1.3,4-1.2.1.2A4.68,4.68,0,0,1,146.3,107.2Z" transform="translate(0 0)"/><path id="Shape-20" data-name="Shape" class="cls-2" d="M205.9,79.7a39.7,39.7,0,1,0,39.7,39.7h0A39.54,39.54,0,0,0,205.9,79.7Zm-5.1,40.5a4.48,4.48,0,0,1-.1,1.1l11.4,5.7a10.12,10.12,0,1,1-.5,14.3,10.49,10.49,0,0,1-2.7-6.9,4.1,4.1,0,0,1,.1-1.1l-11.4-5.7a10.12,10.12,0,1,1,0-14.8l11.4-5.7c0-.3-.1-.7-.1-1.1a10.15,10.15,0,1,1,10.2,10.1,10.55,10.55,0,0,1-7-2.7l-11.4,5.7C200.7,119.5,200.8,119.8,200.8,120.2Z" transform="translate(0 0)"/><path id="Shape-21" data-name="Shape" class="cls-2" d="M289.3,79.6A39.7,39.7,0,1,0,329,119.3,39.73,39.73,0,0,0,289.3,79.6Zm11.2,40.3c0,12.2-8.1,20.4-20.2,20.4a21,21,0,0,1,0-42,21.3,21.3,0,0,1,14,5.2l-5.4,6.1a13.44,13.44,0,0,0-8.6-3.2,12.9,12.9,0,0,0,0,25.8c6.1,0,10.1-2.9,11.4-8.2H280.4v-8.1h20.1Zm16.1.9V127h-5v-6.2h-6.2v-5h6.2v-6.2h5v6.2h6.2v5Z" transform="translate(0 0)"/><path id="Shape-22" data-name="Shape" class="cls-2" d="M372.5,79.6a39.7,39.7,0,1,0,39.7,39.7A39.73,39.73,0,0,0,372.5,79.6ZM361.8,138H353V111.2h8.8Zm.5-34a4.76,4.76,0,0,1-4.9,3.4c-3.6,0-5.9-3-4.7-6.3.9-2.4,3.8-3.6,6.5-2.8A4.68,4.68,0,0,1,362.3,104Zm31.9,33.4v.6h-8.9V124a11.23,11.23,0,0,0-.4-3.2,4.51,4.51,0,0,0-5.3-3.2,5.56,5.56,0,0,0-1.7.9,5.12,5.12,0,0,0-2.1,4.2V138H367V111.2h8.9v3.5l.3-.3c2.6-3.7,6.3-4.6,10.4-3.7s6.4,3.8,7.2,7.8a18.1,18.1,0,0,1,.4,4Z" transform="translate(0 0)"/><path class="cls-2" d="M560,103.21a9.18,9.18,0,0,0-2.07-3.14A7.6,7.6,0,0,0,554.79,98a17.48,17.48,0,0,0-5.14-.93c-2.94-.13-3.8-.13-11.15-.13s-8.21,0-11.15.13a15.09,15.09,0,0,0-5.14.93,9.18,9.18,0,0,0-3.14,2.07,7.6,7.6,0,0,0-2.07,3.14,17.48,17.48,0,0,0-.93,5.14c-.13,2.94-.13,3.8-.13,11.15s0,8.28.13,11.15a15.09,15.09,0,0,0,.93,5.14,9.18,9.18,0,0,0,2.07,3.14,7.6,7.6,0,0,0,3.14,2.07,17.48,17.48,0,0,0,5.14.93c2.94.13,3.8.13,11.15.13s8.21,0,11.15-.13a15.09,15.09,0,0,0,5.14-.93,9.18,9.18,0,0,0,3.14-2.07,7.6,7.6,0,0,0,2.07-3.14,17.48,17.48,0,0,0,.93-5.14c.13-2.94.13-3.8.13-11.15s0-8.21-.13-11.15A15.09,15.09,0,0,0,560,103.21ZM538,133a14,14,0,1,1,14-14A14,14,0,0,1,538,133Zm15-26a3,3,0,1,1,3-3A3,3,0,0,1,553,107Z" transform="translate(0 0)"/><path class="cls-2" d="M538,79.6a39.7,39.7,0,1,0,39.7,39.7A39.73,39.73,0,0,0,538,79.6Zm27.87,51.25a20.4,20.4,0,0,1-1.27,6.67,14.41,14.41,0,0,1-8.08,8.08,20.4,20.4,0,0,1-6.67,1.27c-2.94.13-3.87.13-11.35.13s-8.41,0-11.35-.13a20.4,20.4,0,0,1-6.67-1.27,14.41,14.41,0,0,1-8.08-8.08,20.4,20.4,0,0,1-1.27-6.67C511,127.91,511,127,511,119.5s0-8.41.13-11.35a20.4,20.4,0,0,1,1.27-6.67,14.41,14.41,0,0,1,8.08-8.08,20.4,20.4,0,0,1,6.67-1.27C530.09,92,531,92,538.5,92s8.41,0,11.35.13a20.4,20.4,0,0,1,6.67,1.27,14.41,14.41,0,0,1,8.08,8.08,20.4,20.4,0,0,1,1.27,6.67c.13,2.94.13,3.87.13,11.35S566,127.91,565.87,130.85Z" transform="translate(0 0)"/><path class="cls-2" d="M538,109.89a9.11,9.11,0,1,0,9.11,9.11A9.13,9.13,0,0,0,538,109.89Z" transform="translate(0 0)"/><path class="cls-1" d="M560,23.61a9.18,9.18,0,0,0-2.07-3.14,7.6,7.6,0,0,0-3.14-2.07,17.48,17.48,0,0,0-5.14-.93c-2.94-.13-3.8-.13-11.15-.13s-8.21,0-11.15.13a15.09,15.09,0,0,0-5.14.93,9.18,9.18,0,0,0-3.14,2.07A7.6,7.6,0,0,0,517,23.61a17.48,17.48,0,0,0-.93,5.14c-.13,2.94-.13,3.8-.13,11.15s0,8.28.13,11.15a15.09,15.09,0,0,0,.93,5.14,9.18,9.18,0,0,0,2.07,3.14,7.6,7.6,0,0,0,3.14,2.07,17.48,17.48,0,0,0,5.14.93c2.94.13,3.8.13,11.15.13s8.21,0,11.15-.13a15.09,15.09,0,0,0,5.14-.93,9.18,9.18,0,0,0,3.14-2.07A7.6,7.6,0,0,0,560,56.19a17.48,17.48,0,0,0,.93-5.14c.13-2.94.13-3.8.13-11.15s0-8.21-.13-11.15A15.09,15.09,0,0,0,560,23.61ZM538,53.4a14,14,0,1,1,14-14A14,14,0,0,1,538,53.4Zm15-26a3,3,0,1,1,3-3A3,3,0,0,1,553,27.4Z" transform="translate(0 0)"/><path class="cls-1" d="M538,0a39.7,39.7,0,1,0,39.7,39.7A39.73,39.73,0,0,0,538,0Zm27.87,51.25a20.4,20.4,0,0,1-1.27,6.67A14.41,14.41,0,0,1,556.52,66a20.4,20.4,0,0,1-6.67,1.27c-2.94.13-3.87.13-11.35.13s-8.41,0-11.35-.13A20.4,20.4,0,0,1,520.48,66a14.41,14.41,0,0,1-8.08-8.08,20.4,20.4,0,0,1-1.27-6.67C511,48.31,511,47.38,511,39.9s0-8.41.13-11.35a20.4,20.4,0,0,1,1.27-6.67,14.41,14.41,0,0,1,8.08-8.08,20.4,20.4,0,0,1,6.67-1.27c2.94-.13,3.87-.13,11.35-.13s8.41,0,11.35.13a20.4,20.4,0,0,1,6.67,1.27,14.41,14.41,0,0,1,8.08,8.08,20.4,20.4,0,0,1,1.27,6.67c.13,2.94.13,3.87.13,11.35S566,48.31,565.87,51.25Z" transform="translate(0 0)"/><path class="cls-1" d="M538,30.29a9.11,9.11,0,1,0,9.11,9.11A9.13,9.13,0,0,0,538,30.29Z" transform="translate(0 0)"/></g></g></svg>
